#N canvas 129 108 393 429 10; 
#X declare -path Libs; 
#X obj 1 1 tgl 15 0 empty empty empty 0 -6 0 8 #fcfcfc #000000 #000000 0 1; 
#X obj 2 101 dac~; 
#X obj 1 23 cycleround 200; 
#X obj 1 47 bubblepattern 50; 
#X obj 1 71 bubblesound 600; 
#X obj 218 166 declare -path Libs; 
#X obj 151 69 r start; 
#X obj 150 141 1; 
#X obj 152 186 bng 16 250 50 0 empty empty empty 0 -8 0 10 #fcfcfc #000000 #000000; 
#X obj 159 221 s paint; 
#X connect 0 0 2 0; 
#X connect 2 0 3 0; 
#X connect 3 0 4 0; 
#X connect 3 0 8 0; 
#X connect 4 0 1 0; 
#X connect 4 0 1 1; 
#X connect 6 0 7 0; 
#X connect 7 0 0 0; 
#X connect 8 0 9 0; 
